<svg xmlns="http://www.w3.org/2000/svg" version="1.1" xmlns:xlink="http://www.w3.org/1999/xlink" xmlns:svgjs="http://svgjs.dev/svgjs" width="1000" height="1000" viewBox="0 0 1000 1000"><rect width="1000" height="1000" fill="#ffffff"></rect><g transform="matrix(0.7,0,0,0.7,149.76636279635903,246.10574898785424)"><svg viewBox="0 0 340 247" data-background-color="#ffffff" preserveAspectRatio="xMidYMid meet" height="726" width="1000" xmlns="http://www.w3.org/2000/svg" xmlns:xlink="http://www.w3.org/1999/xlink"><g id="tight-bounds" transform="matrix(1,0,0,1,0.11348092748275462,-0.09999999999999432)"><svg viewBox="0 0 339.7730381450345 247.2" height="247.2" width="339.7730381450345"><g><svg viewBox="0 0 397.4975999999999 289.19718661742786" height="247.2" width="339.7730381450345"><g><rect width="397.4975999999999" height="6.028223104359534" x="0" y="200.5424761388241" fill="#6f605b" opacity="1" stroke-width="0" stroke="transparent" fill-opacity="1" class="rect-o-0" data-fill-palette-color="primary" rx="1%" id="o-0" data-palette-color="#6f605b"></rect></g><g transform="matrix(1,0,0,1,0.9887999999999693,222.35138799805154)"><svg viewBox="0 0 395.52 66.84579861937634" height="66.84579861937634" width="395.52"><g id="textblocktransform"><svg viewBox="0 0 395.52 66.84579861937634" height="66.84579861937634" width="395.52" id="textblock"><g><svg viewBox="0 0 395.52 66.84579861937634" height="66.84579861937634" width="395.52"><g transform="matrix(1,0,0,1,0,0)"><svg width="395.52" viewBox="3.930000066757202 -35 220.0500030517578 35.5" height="66.84579861937634" data-palette-color="#6f605b"><g class="wordmark-text-0" data-fill-palette-color="primary" id="text-0"><path d="M9.53 0L3.93 0 3.93-35 15.88-35Q19.6-35 22.33-33.84 25.05-32.68 26.51-30.18 27.98-27.68 27.98-23.68L27.98-23.68Q27.98-19.68 26.51-17.14 25.05-14.6 22.34-13.4 19.63-12.2 15.93-12.2L15.93-12.2 9.53-12.2 9.53 0ZM9.53-30.28L9.53-16.93 15.2-16.93Q18.8-16.93 20.6-18.55 22.4-20.18 22.4-23.6L22.4-23.6Q22.4-27.05 20.65-28.66 18.9-30.28 15.15-30.28L15.15-30.28 9.53-30.28ZM37.47 0L32.07 0 32.07-24.7 36.67-24.7 37.05-21.25Q38.55-23.05 40.26-24.13 41.97-25.2 43.97-25.2L43.97-25.2Q44.57-25.2 45.1-25.08L45.1-25.08 44.65-19.65Q44.22-19.75 43.78-19.8 43.35-19.85 42.87-19.85L42.87-19.85Q41.07-19.85 39.59-19.04 38.1-18.23 37.47-17.2L37.47-17.2 37.47 0ZM59.15 0.5L59.15 0.5Q55.22 0.5 52.43-1.24 49.65-2.98 48.18-5.89 46.72-8.8 46.72-12.33L46.72-12.33Q46.72-15.88 48.18-18.8 49.65-21.73 52.43-23.46 55.22-25.2 59.15-25.2L59.15-25.2Q63.1-25.2 65.88-23.46 68.67-21.73 70.13-18.8 71.6-15.88 71.6-12.33L71.6-12.33Q71.6-8.8 70.13-5.89 68.67-2.98 65.88-1.24 63.1 0.5 59.15 0.5ZM59.15-3.98L59.15-3.98Q62.6-3.98 64.43-6.23 66.27-8.47 66.27-12.33L66.27-12.33Q66.27-16.2 64.43-18.48 62.6-20.75 59.15-20.75L59.15-20.75Q55.75-20.75 53.9-18.48 52.05-16.2 52.05-12.33L52.05-12.33Q52.05-8.47 53.9-6.23 55.75-3.98 59.15-3.98ZM89.39 0L83.94 0 83.94-29.9 73.87-29.9 73.87-35 99.47-35 99.47-29.9 89.39-29.9 89.39 0ZM115.09 0.5L115.09 0.5Q110.67 0.5 107.69-1.29 104.72-3.08 103.2-6.04 101.69-9 101.69-12.53L101.69-12.53Q101.69-15.95 103.1-18.82 104.52-21.7 107.23-23.44 109.94-25.18 113.79-25.18L113.79-25.18Q117.06-25.18 119.47-23.85 121.87-22.53 123.15-20.15 124.44-17.78 124.44-14.6L124.44-14.6Q124.44-13.95 124.38-13.25 124.31-12.55 124.17-11.78L124.17-11.78 107.09-11.78Q107.42-8.85 108.64-7.14 109.87-5.43 111.69-4.7 113.52-3.98 115.64-3.98L115.64-3.98Q117.54-3.98 119.39-4.41 121.24-4.85 122.87-5.68L122.87-5.68 123.34-1.4Q121.92-0.73 119.84-0.11 117.77 0.5 115.09 0.5ZM107.39-15.35L107.39-15.35 119.09-15.35Q119.09-16.82 118.54-18.04 117.99-19.25 116.8-19.98 115.62-20.7 113.74-20.7L113.74-20.7Q110.99-20.7 109.48-19.25 107.97-17.8 107.39-15.35ZM134.44 0.5L134.44 0.5Q132.29 0.5 130.61-0.41 128.94-1.33 127.98-2.95 127.01-4.58 127.01-6.78L127.01-6.78Q127.01-8.88 127.96-10.36 128.91-11.85 130.49-12.85 132.06-13.85 133.95-14.44 135.84-15.03 137.79-15.3 139.74-15.58 141.41-15.6L141.41-15.6Q141.39-18.53 140.16-19.56 138.94-20.6 136.44-20.6L136.44-20.6Q134.94-20.6 133.36-20.16 131.79-19.73 129.81-18.53L129.81-18.53 129.21-22.78Q131.01-23.88 133.24-24.53 135.46-25.18 137.84-25.18L137.84-25.18Q140.81-25.18 142.76-24.13 144.71-23.08 145.69-20.65 146.66-18.23 146.66-14.15L146.66-14.15 146.66-8.4Q146.66-6.6 146.82-5.59 146.99-4.58 147.54-4.15 148.09-3.73 149.21-3.73L149.21-3.73 149.81-3.73 149.16 0.5 148.01 0.5Q146.16 0.5 145.03 0.1 143.89-0.3 143.19-1.04 142.49-1.78 142.01-2.8L142.01-2.8Q140.69-1.3 138.72-0.4 136.76 0.5 134.44 0.5ZM136.04-3.6L136.04-3.6Q137.44-3.6 138.93-4.3 140.41-5 141.44-6.25L141.44-6.25 141.44-12.05Q138.64-11.93 136.63-11.39 134.61-10.85 133.53-9.78 132.44-8.7 132.44-7.03L132.44-7.03Q132.44-5.23 133.39-4.41 134.34-3.6 136.04-3.6ZM158.46 0L153.23 0 153.23-24.7 157.51-24.7 158.21-20.45 156.83-21.38Q158.76-23.28 160.86-24.23 162.96-25.18 165.46-25.18L165.46-25.18Q167.36-25.18 168.96-24.59 170.56-24 171.8-22.7 173.03-21.4 173.78-19.25L173.78-19.25 172.44-19.73Q173.58-22.28 175.87-23.73 178.16-25.18 181.61-25.18L181.61-25.18Q184.83-25.18 186.97-23.91 189.11-22.65 190.16-20.21 191.21-17.78 191.21-14.23L191.21-14.23 191.21 0 185.98 0 185.98-14Q185.98-17.48 184.75-19.09 183.51-20.7 180.69-20.7L180.69-20.7Q178.91-20.7 177.76-20.14 176.61-19.58 175.97-18.61 175.33-17.65 175.08-16.48 174.83-15.3 174.83-14.08L174.83-14.08 174.83 0 169.61 0 169.61-13.48Q169.61-16.2 168.98-17.78 168.36-19.35 167.16-20.03 165.96-20.7 164.26-20.7L164.26-20.7Q161.91-20.7 160.2-19.65 158.48-18.6 157.66-16.5L157.66-16.5 158.46-19.33 158.46 0ZM206.78 0L201.43 0 201.43-27.23Q199.98-26.13 198.83-25.56 197.68-25 196.56-24.7L196.56-24.7 195.86-29.55Q197.11-29.9 198.48-30.75 199.86-31.6 201.03-32.71 202.21-33.83 202.83-35L202.83-35 206.78-35 206.78 0ZM223.98 0L218.63 0 218.63-27.23Q217.18-26.13 216.03-25.56 214.88-25 213.75-24.7L213.75-24.7 213.06-29.55Q214.31-29.9 215.68-30.75 217.06-31.6 218.23-32.71 219.41-33.83 220.03-35L220.03-35 223.98-35 223.98 0Z" fill="#6f605b" data-fill-palette-color="primary"></path></g></svg></g></svg></g></svg></g></svg></g><g transform="matrix(1,0,0,1,95.63470530733076,0)"><svg viewBox="0 0 206.2281893853384 184.7617873839562" height="184.7617873839562" width="206.2281893853384"><g><svg xmlns="http://www.w3.org/2000/svg" xmlns:xlink="http://www.w3.org/1999/xlink" version="1.1" x="0" y="0" viewBox="0.9850000143051147 6.086999893188477 98.02999877929688 87.82600402832031" enable-background="new 0 0 100 100" xml:space="preserve" height="184.7617873839562" width="206.2281893853384" class="icon-icon-0" data-fill-palette-color="accent" id="icon-0"><path d="M50 6.087C22.93 6.087 0.985 25.748 0.985 50 0.985 74.253 22.93 93.913 50 93.913c27.07 0 49.015-19.66 49.015-43.913C99.015 25.748 77.07 6.087 50 6.087zM74.833 69.08c-32.125 19.166-60.851-0.667-66.379-6.454 14.492 11.331 37.288 14.851 56.379 6.787C76.146 64.037 82.172 56.755 85 47.079c2.829-10.751-0.536-20.965-11.143-27.954-9.899-6.451-22.628-8.601-35.355-5.376-9.899 3.226-17.678 9.139-20.506 17.74-3.535 9.139 2.829 18.277 13.435 23.115 10.606 3.763 25.456 2.15 31.113-6.45 3.535-5.914 2.121-13.44-5.657-17.203-3.535-1.613-8.303-1.955-10.86 0.174-3.521 2.932 1.89 0.361 5.874 2.206 2.517 1.165 5.6 3.165 4.986 8.372-0.772 6.559-11.313 9.677-18.385 7.526-7.778-2.688-11.314-8.601-10.606-14.515 1.414-6.451 7.778-11.289 15.557-12.902 13.435-2.688 25.455 4.301 29.698 13.978 3.535 9.138-2.121 17.739-12.021 23.115-8.484 4.301-18.385 5.376-27.577 2.688-13.435-3.763-22.627-12.901-23.334-24.19C9.511 22.888 22.238 12.137 39.916 8.374c19.799-3.225 39.598 4.301 48.083 18.277C95.777 41.166 91.609 59.071 74.833 69.08z" fill="#f36527" data-fill-palette-color="accent"></path></svg></g></svg></g><g></g></svg></g><defs></defs></svg><rect width="339.7730381450345" height="247.2" fill="none" stroke="none" visibility="hidden"></rect></g></svg></g></svg>